<svg width="69" height="12" viewBox="0 0 69 12" fill="none" xmlns="http://www.w3.org/2000/svg">
<path d="M7.51953 11L6.52148 8.22461H2.7002L1.72266 11H0L3.73926 0.964844H5.5166L9.25586 11H7.51953ZM6.09082 6.81641L5.1543 4.0957C5.08594 3.91341 4.99023 3.6263 4.86719 3.23438C4.7487 2.84245 4.66667 2.55534 4.62109 2.37305C4.49805 2.93359 4.31803 3.54655 4.08105 4.21191L3.17871 6.81641H6.09082ZM12.0107 11H10.4043V3.43945H12.0107V11ZM10.3086 1.43652C10.3086 1.14941 10.3861 0.928385 10.541 0.773438C10.7005 0.61849 10.9261 0.541016 11.2178 0.541016C11.5003 0.541016 11.7191 0.61849 11.874 0.773438C12.0335 0.928385 12.1133 1.14941 12.1133 1.43652C12.1133 1.70996 12.0335 1.92643 11.874 2.08594C11.7191 2.24089 11.5003 2.31836 11.2178 2.31836C10.9261 2.31836 10.7005 2.24089 10.541 2.08594C10.3861 1.92643 10.3086 1.70996 10.3086 1.43652ZM18.1494 3.30273C18.473 3.30273 18.7396 3.32552 18.9492 3.37109L18.792 4.86816C18.5641 4.81348 18.3271 4.78613 18.0811 4.78613C17.4385 4.78613 16.9167 4.99577 16.5156 5.41504C16.1191 5.83431 15.9209 6.37891 15.9209 7.04883V11H14.3145V3.43945H15.5723L15.7842 4.77246H15.8662C16.1169 4.32129 16.4427 3.96354 16.8438 3.69922C17.2493 3.4349 17.6846 3.30273 18.1494 3.30273ZM30.3652 11L29.3672 8.22461H25.5459L24.5684 11H22.8457L26.585 0.964844H28.3623L32.1016 11H30.3652ZM28.9365 6.81641L28 4.0957C27.9316 3.91341 27.8359 3.6263 27.7129 3.23438C27.5944 2.84245 27.5124 2.55534 27.4668 2.37305C27.3438 2.93359 27.1637 3.54655 26.9268 4.21191L26.0244 6.81641H28.9365ZM38.3291 8.84668C38.3291 9.58496 38.0602 10.1523 37.5225 10.5488C36.9847 10.9408 36.2145 11.1367 35.2119 11.1367C34.2048 11.1367 33.3958 10.984 32.7852 10.6787V9.29102C33.6738 9.70117 34.501 9.90625 35.2666 9.90625C36.2555 9.90625 36.75 9.60775 36.75 9.01074C36.75 8.81934 36.6953 8.65983 36.5859 8.53223C36.4766 8.40462 36.2965 8.27246 36.0459 8.13574C35.7952 7.99902 35.4466 7.84408 35 7.6709C34.1296 7.33366 33.5394 6.99642 33.2295 6.65918C32.9242 6.32194 32.7715 5.88444 32.7715 5.34668C32.7715 4.69954 33.0312 4.19824 33.5508 3.84277C34.0749 3.48275 34.7858 3.30273 35.6836 3.30273C36.5723 3.30273 37.4131 3.48275 38.2061 3.84277L37.6865 5.05273C36.8708 4.71549 36.1849 4.54688 35.6289 4.54688C34.7812 4.54688 34.3574 4.78841 34.3574 5.27148C34.3574 5.50846 34.4668 5.70898 34.6855 5.87305C34.9089 6.03711 35.3919 6.2627 36.1348 6.5498C36.7591 6.79134 37.2126 7.01237 37.4951 7.21289C37.7777 7.41341 37.9873 7.64583 38.124 7.91016C38.2607 8.16992 38.3291 8.4821 38.3291 8.84668ZM42.8887 9.83789C43.2806 9.83789 43.6725 9.77637 44.0645 9.65332V10.8633C43.8867 10.9408 43.6566 11.0046 43.374 11.0547C43.096 11.1094 42.8066 11.1367 42.5059 11.1367C40.9837 11.1367 40.2227 10.3346 40.2227 8.73047V4.65625H39.1904V3.94531L40.2979 3.35742L40.8447 1.75781H41.8359V3.43945H43.9893V4.65625H41.8359V8.70312C41.8359 9.09049 41.9316 9.3776 42.123 9.56445C42.319 9.74674 42.5742 9.83789 42.8887 9.83789ZM50.3125 11L49.9912 9.94727H49.9365C49.5719 10.4076 49.2051 10.722 48.8359 10.8906C48.4668 11.0547 47.9928 11.1367 47.4141 11.1367C46.6712 11.1367 46.0902 10.9362 45.6709 10.5352C45.2562 10.1341 45.0488 9.56673 45.0488 8.83301C45.0488 8.05371 45.3382 7.46582 45.917 7.06934C46.4958 6.67285 47.3776 6.45638 48.5625 6.41992L49.8682 6.37891V5.97559C49.8682 5.49251 49.7542 5.13249 49.5264 4.89551C49.3031 4.65397 48.9544 4.5332 48.4805 4.5332C48.0931 4.5332 47.7217 4.59017 47.3662 4.7041C47.0107 4.81803 46.6689 4.95247 46.3408 5.10742L45.8213 3.95898C46.2314 3.74479 46.6803 3.58301 47.168 3.47363C47.6556 3.3597 48.1159 3.30273 48.5488 3.30273C49.5104 3.30273 50.235 3.51237 50.7227 3.93164C51.2148 4.35091 51.4609 5.00944 51.4609 5.90723V11H50.3125ZM47.9199 9.90625C48.5033 9.90625 48.9704 9.74447 49.3213 9.4209C49.6768 9.09277 49.8545 8.63477 49.8545 8.04688V7.39062L48.8838 7.43164C48.1273 7.45898 47.5758 7.58659 47.2295 7.81445C46.8877 8.03776 46.7168 8.38184 46.7168 8.84668C46.7168 9.18392 46.8171 9.44596 47.0176 9.63281C47.2181 9.8151 47.5189 9.90625 47.9199 9.90625ZM60.3545 11H58.7412V6.35156C58.7412 5.76823 58.6227 5.33301 58.3857 5.0459C58.1533 4.75879 57.7819 4.61523 57.2715 4.61523C56.5924 4.61523 56.0957 4.81576 55.7812 5.2168C55.4668 5.61784 55.3096 6.29004 55.3096 7.2334V11H53.7031V3.43945H54.9609L55.1865 4.43066H55.2686C55.4964 4.07064 55.82 3.79264 56.2393 3.59668C56.6585 3.40072 57.1234 3.30273 57.6338 3.30273C59.4476 3.30273 60.3545 4.22559 60.3545 6.07129V11ZM67.3203 11L66.999 9.94727H66.9443C66.5798 10.4076 66.2129 10.722 65.8438 10.8906C65.4746 11.0547 65.0007 11.1367 64.4219 11.1367C63.679 11.1367 63.098 10.9362 62.6787 10.5352C62.264 10.1341 62.0566 9.56673 62.0566 8.83301C62.0566 8.05371 62.346 7.46582 62.9248 7.06934C63.5036 6.67285 64.3854 6.45638 65.5703 6.41992L66.876 6.37891V5.97559C66.876 5.49251 66.762 5.13249 66.5342 4.89551C66.3109 4.65397 65.9622 4.5332 65.4883 4.5332C65.1009 4.5332 64.7295 4.59017 64.374 4.7041C64.0186 4.81803 63.6768 4.95247 63.3486 5.10742L62.8291 3.95898C63.2393 3.74479 63.6882 3.58301 64.1758 3.47363C64.6634 3.3597 65.1237 3.30273 65.5566 3.30273C66.5182 3.30273 67.2428 3.51237 67.7305 3.93164C68.2227 4.35091 68.4688 5.00944 68.4688 5.90723V11H67.3203ZM64.9277 9.90625C65.5111 9.90625 65.9782 9.74447 66.3291 9.4209C66.6846 9.09277 66.8623 8.63477 66.8623 8.04688V7.39062L65.8916 7.43164C65.1351 7.45898 64.5837 7.58659 64.2373 7.81445C63.8955 8.03776 63.7246 8.38184 63.7246 8.84668C63.7246 9.18392 63.8249 9.44596 64.0254 9.63281C64.2259 9.8151 64.5267 9.90625 64.9277 9.90625Z" fill="#202123"/>
</svg>
