<svg width="173" height="42" viewBox="0 0 173 42" fill="none" xmlns="http://www.w3.org/2000/svg">
<path d="M15.4106 32.5781V34.9219C15.4106 35.6719 15.8383 36.0469 16.6938 36.0469C17.0493 36.0469 17.3891 35.9922 17.7133 35.8828C18.0376 35.7734 18.4048 35.5879 18.8149 35.3262V32.5781H19.7876V39H18.8149V36.0938C18.4048 36.375 18.0239 36.5742 17.6723 36.6914C17.3247 36.8047 16.9301 36.8613 16.4887 36.8613C15.8481 36.8613 15.3462 36.6934 14.9829 36.3574C14.6196 36.0215 14.438 35.5664 14.438 34.9922V32.5781H15.4106ZM24.5688 39.1172C23.6196 39.1172 22.8696 38.8281 22.3188 38.25C21.7719 37.6719 21.4985 36.8691 21.4985 35.8418C21.4985 34.8066 21.7524 33.9844 22.2602 33.375C22.7719 32.7656 23.4575 32.4609 24.3169 32.4609C25.1216 32.4609 25.7583 32.7266 26.227 33.2578C26.6958 33.7852 26.9301 34.4824 26.9301 35.3496V35.9648H22.5063C22.5258 36.7188 22.7153 37.291 23.0747 37.6816C23.438 38.0723 23.9477 38.2676 24.604 38.2676C25.2954 38.2676 25.979 38.123 26.6548 37.834V38.7012C26.311 38.8496 25.9848 38.9551 25.6762 39.0176C25.3716 39.084 25.0024 39.1172 24.5688 39.1172ZM24.3051 33.2754C23.7895 33.2754 23.3774 33.4434 23.0688 33.7793C22.7641 34.1152 22.5844 34.5801 22.5298 35.1738H25.8872C25.8872 34.5605 25.7505 34.0918 25.477 33.7676C25.2036 33.4395 24.813 33.2754 24.3051 33.2754ZM31.5825 39.1172C31.1645 39.1172 30.7817 39.041 30.4341 38.8887C30.0903 38.7324 29.8012 38.4941 29.5669 38.1738H29.4966C29.5434 38.5488 29.5669 38.9043 29.5669 39.2402V41.8828H28.5942V32.5781H29.3852L29.52 33.457H29.5669C29.8169 33.1055 30.1079 32.8516 30.4399 32.6953C30.7719 32.5391 31.1528 32.4609 31.5825 32.4609C32.4341 32.4609 33.0903 32.752 33.5512 33.334C34.0161 33.916 34.2485 34.7324 34.2485 35.7832C34.2485 36.8379 34.0122 37.6582 33.5395 38.2441C33.0708 38.8262 32.4184 39.1172 31.5825 39.1172ZM31.4419 33.2871C30.7856 33.2871 30.311 33.4688 30.018 33.832C29.7251 34.1953 29.5747 34.7734 29.5669 35.5664V35.7832C29.5669 36.6855 29.7173 37.332 30.018 37.7227C30.3188 38.1094 30.8012 38.3027 31.4653 38.3027C32.02 38.3027 32.4536 38.0781 32.7661 37.6289C33.0825 37.1797 33.2407 36.5605 33.2407 35.7715C33.2407 34.9707 33.0825 34.3574 32.7661 33.9316C32.4536 33.502 32.0122 33.2871 31.4419 33.2871ZM38.6665 39.1172C37.7173 39.1172 36.9673 38.8281 36.4165 38.25C35.8696 37.6719 35.5962 36.8691 35.5962 35.8418C35.5962 34.8066 35.8501 33.9844 36.3579 33.375C36.8696 32.7656 37.5551 32.4609 38.4145 32.4609C39.2192 32.4609 39.8559 32.7266 40.3247 33.2578C40.7934 33.7852 41.0278 34.4824 41.0278 35.3496V35.9648H36.604C36.6235 36.7188 36.813 37.291 37.1723 37.6816C37.5356 38.0723 38.0454 38.2676 38.7016 38.2676C39.393 38.2676 40.0766 38.123 40.7524 37.834V38.7012C40.4087 38.8496 40.0825 38.9551 39.7739 39.0176C39.4692 39.084 39.1001 39.1172 38.6665 39.1172ZM38.4028 33.2754C37.8872 33.2754 37.4751 33.4434 37.1665 33.7793C36.8618 34.1152 36.6821 34.5801 36.6274 35.1738H39.9848C39.9848 34.5605 39.8481 34.0918 39.5747 33.7676C39.3012 33.4395 38.9106 33.2754 38.4028 33.2754ZM43.9165 35.2441C45.1313 35.2441 45.7387 34.9082 45.7387 34.2363C45.7387 33.6035 45.2466 33.2871 44.2622 33.2871C43.9614 33.2871 43.688 33.3145 43.4419 33.3691C43.1958 33.4238 42.8735 33.5332 42.4751 33.6973L42.1294 32.9062C42.7934 32.6094 43.518 32.4609 44.3032 32.4609C45.0415 32.4609 45.6235 32.6133 46.0493 32.918C46.4751 33.2188 46.688 33.6309 46.688 34.1543C46.688 34.873 46.2876 35.3438 45.4868 35.5664V35.6133C45.979 35.7578 46.3383 35.9648 46.5649 36.2344C46.7915 36.5 46.9048 36.834 46.9048 37.2363C46.9048 37.8301 46.6645 38.293 46.1841 38.625C45.7075 38.9531 45.0473 39.1172 44.2036 39.1172C43.2778 39.1172 42.563 38.9785 42.0591 38.7012V37.8105C42.7739 38.1465 43.4966 38.3145 44.227 38.3145C44.7895 38.3145 45.2133 38.2188 45.4985 38.0273C45.7876 37.832 45.9321 37.5527 45.9321 37.1895C45.9321 36.4434 45.3247 36.0703 44.1098 36.0703H43.2192V35.2441H43.9165ZM61.7876 39H51.7563V30.4336H52.7524V38.0977H56.268V30.4336H57.2641V38.0977H60.7798V30.4336H61.7876V39ZM64.9692 35.2324H66.7212C67.5376 35.2324 68.1411 35.3848 68.5317 35.6895C68.9262 35.9902 69.1235 36.4414 69.1235 37.043C69.1235 37.6875 68.9145 38.1758 68.4966 38.5078C68.0825 38.8359 67.4712 39 66.6626 39H63.9966V32.5781H64.9692V35.2324ZM71.1743 39H70.2016V32.5781H71.1743V39ZM64.9692 36.0703V38.1855H66.6157C67.6469 38.1855 68.1626 37.8242 68.1626 37.1016C68.1626 36.7422 68.0434 36.4805 67.8051 36.3164C67.5669 36.1523 67.1606 36.0703 66.5864 36.0703H64.9692ZM76.5766 38.0625L76.7583 37.5176L77.0102 36.8262L78.7505 32.5898H79.9868V39H79.1255V33.6973L79.0083 34.0371L78.6684 34.9336L77.0102 39H76.1958L74.5376 34.9219C74.3305 34.3984 74.188 33.9902 74.1098 33.6973V39H73.2426V32.5898H74.4321L76.1137 36.6621C76.2817 37.0918 76.436 37.5586 76.5766 38.0625ZM85.811 32.5781H86.8774L84.1059 35.6777L87.1059 39H85.9692L83.0395 35.748V39H82.0669V32.5781H83.0395V35.7012L85.811 32.5781ZM91.0141 39.1172C90.0649 39.1172 89.3149 38.8281 88.7641 38.25C88.2173 37.6719 87.9438 36.8691 87.9438 35.8418C87.9438 34.8066 88.1977 33.9844 88.7055 33.375C89.2173 32.7656 89.9028 32.4609 90.7622 32.4609C91.5669 32.4609 92.2036 32.7266 92.6723 33.2578C93.1411 33.7852 93.3755 34.4824 93.3755 35.3496V35.9648H88.9516C88.9712 36.7188 89.1606 37.291 89.52 37.6816C89.8833 38.0723 90.393 38.2676 91.0493 38.2676C91.7407 38.2676 92.4243 38.123 93.1001 37.834V38.7012C92.7563 38.8496 92.4301 38.9551 92.1216 39.0176C91.8169 39.084 91.4477 39.1172 91.0141 39.1172ZM90.7505 33.2754C90.2348 33.2754 89.8227 33.4434 89.5141 33.7793C89.2094 34.1152 89.0298 34.5801 88.9751 35.1738H92.3325C92.3325 34.5605 92.1958 34.0918 91.9223 33.7676C91.6489 33.4395 91.2583 33.2754 90.7505 33.2754ZM96.0122 32.5781V35.2676H99.6098V32.5781H100.582V39H99.6098V36.1055H96.0122V39H95.0395V32.5781H96.0122ZM106.975 33.4102H104.889V39H103.916V33.4102H101.854V32.5781H106.975V33.4102ZM109.266 37.6055L109.354 37.7402C109.252 38.1309 109.106 38.584 108.915 39.0996C108.723 39.6191 108.524 40.1016 108.317 40.5469H107.584C107.69 40.1406 107.805 39.6387 107.93 39.041C108.059 38.4434 108.149 37.9648 108.2 37.6055H109.266ZM117.463 39H116.514V32.8945C116.514 32.3867 116.53 31.9062 116.561 31.4531C116.479 31.5352 116.387 31.6211 116.286 31.7109C116.184 31.8008 115.719 32.1816 114.891 32.8535L114.375 32.1855L116.643 30.4336H117.463V39ZM125.145 32.5781V34.9219C125.145 35.6719 125.573 36.0469 126.428 36.0469C126.784 36.0469 127.124 35.9922 127.448 35.8828C127.772 35.7734 128.139 35.5879 128.549 35.3262V32.5781H129.522V39H128.549V36.0938C128.139 36.375 127.758 36.5742 127.407 36.6914C127.059 36.8047 126.665 36.8613 126.223 36.8613C125.582 36.8613 125.081 36.6934 124.717 36.3574C124.354 36.0215 124.172 35.5664 124.172 34.9922V32.5781H125.145ZM136.94 33.7676C137.842 33.7676 138.551 33.9922 139.067 34.4414C139.586 34.8867 139.846 35.498 139.846 36.2754C139.846 37.1621 139.563 37.8574 138.997 38.3613C138.434 38.8652 137.657 39.1172 136.665 39.1172C135.7 39.1172 134.963 38.9629 134.456 38.6543V37.7168C134.729 37.8926 135.069 38.0312 135.475 38.1328C135.881 38.2305 136.282 38.2793 136.676 38.2793C137.364 38.2793 137.897 38.1172 138.276 37.793C138.659 37.4688 138.85 37 138.85 36.3867C138.85 35.1914 138.118 34.5938 136.653 34.5938C136.282 34.5938 135.786 34.6504 135.165 34.7637L134.661 34.4414L134.983 30.4336H139.243V31.3301H135.815L135.598 33.9023C136.047 33.8125 136.495 33.7676 136.94 33.7676ZM146.807 34.7051C146.807 36.1855 146.573 37.291 146.104 38.0215C145.639 38.752 144.926 39.1172 143.965 39.1172C143.043 39.1172 142.342 38.7441 141.862 37.998C141.381 37.248 141.141 36.1504 141.141 34.7051C141.141 33.2129 141.374 32.1055 141.838 31.3828C142.303 30.6602 143.012 30.2988 143.965 30.2988C144.895 30.2988 145.6 30.6758 146.081 31.4297C146.565 32.1836 146.807 33.2754 146.807 34.7051ZM142.125 34.7051C142.125 35.9512 142.272 36.8594 142.565 37.4297C142.858 37.9961 143.325 38.2793 143.965 38.2793C144.614 38.2793 145.082 37.9922 145.372 37.418C145.665 36.8398 145.811 35.9355 145.811 34.7051C145.811 33.4746 145.665 32.5742 145.372 32.0039C145.082 31.4297 144.614 31.1426 143.965 31.1426C143.325 31.1426 142.858 31.4258 142.565 31.9922C142.272 32.5547 142.125 33.459 142.125 34.7051ZM154.893 38.0625L155.075 37.5176L155.327 36.8262L157.067 32.5898H158.303V39H157.442V33.6973L157.325 34.0371L156.985 34.9336L155.327 39H154.512L152.854 34.9219C152.647 34.3984 152.504 33.9902 152.426 33.6973V39H151.559V32.5898H152.749L154.43 36.6621C154.598 37.0918 154.752 37.5586 154.893 38.0625Z" fill="#FF9900"/>
<path d="M69.52 11.0312H68.2485V13H67.3169V11.0312H63.1508V10.1816L67.2173 4.38672H68.2485V10.1465H69.52V11.0312ZM67.3169 10.1465V7.29883C67.3169 6.74023 67.3364 6.10938 67.3755 5.40625H67.3286C67.1411 5.78125 66.9653 6.0918 66.8012 6.33789L64.1235 10.1465H67.3169ZM74.77 6.57812V8.92188C74.77 9.67188 75.1977 10.0469 76.0532 10.0469C76.4087 10.0469 76.7485 9.99219 77.0727 9.88281C77.3969 9.77344 77.7641 9.58789 78.1743 9.32617V6.57812H79.1469V13H78.1743V10.0938C77.7641 10.375 77.3833 10.5742 77.0317 10.6914C76.6841 10.8047 76.2895 10.8613 75.8481 10.8613C75.2075 10.8613 74.7055 10.6934 74.3423 10.3574C73.979 10.0215 73.7973 9.56641 73.7973 8.99219V6.57812H74.77ZM89.518 13H83.8872V12.1621L86.143 9.89453C86.8305 9.19922 87.2837 8.70312 87.5024 8.40625C87.7212 8.10938 87.8852 7.82031 87.9946 7.53906C88.104 7.25781 88.1587 6.95508 88.1587 6.63086C88.1587 6.17383 88.02 5.8125 87.7426 5.54688C87.4653 5.27734 87.0805 5.14258 86.5883 5.14258C86.2329 5.14258 85.895 5.20117 85.5747 5.31836C85.2583 5.43555 84.9048 5.64844 84.5141 5.95703L83.9985 5.29492C84.7876 4.63867 85.6469 4.31055 86.5766 4.31055C87.3813 4.31055 88.0122 4.51758 88.4692 4.93164C88.9262 5.3418 89.1548 5.89453 89.1548 6.58984C89.1548 7.13281 89.0024 7.66992 88.6977 8.20117C88.393 8.73242 87.8227 9.4043 86.9868 10.2168L85.1118 12.0508V12.0977H89.518V13ZM96.4321 8.70508C96.4321 10.1855 96.1977 11.291 95.729 12.0215C95.2641 12.752 94.5512 13.1172 93.5903 13.1172C92.6684 13.1172 91.9673 12.7441 91.4868 11.998C91.0063 11.248 90.7661 10.1504 90.7661 8.70508C90.7661 7.21289 90.9985 6.10547 91.4633 5.38281C91.9282 4.66016 92.6372 4.29883 93.5903 4.29883C94.52 4.29883 95.2251 4.67578 95.7055 5.42969C96.1899 6.18359 96.4321 7.27539 96.4321 8.70508ZM91.7505 8.70508C91.7505 9.95117 91.8969 10.8594 92.1899 11.4297C92.4829 11.9961 92.9497 12.2793 93.5903 12.2793C94.2387 12.2793 94.7075 11.9922 94.9966 11.418C95.2895 10.8398 95.436 9.93555 95.436 8.70508C95.436 7.47461 95.2895 6.57422 94.9966 6.00391C94.7075 5.42969 94.2387 5.14258 93.5903 5.14258C92.9497 5.14258 92.4829 5.42578 92.1899 5.99219C91.8969 6.55469 91.7505 7.45898 91.7505 8.70508ZM104.518 12.0625L104.7 11.5176L104.952 10.8262L106.692 6.58984H107.928V13H107.067V7.69727L106.95 8.03711L106.61 8.93359L104.952 13H104.137L102.479 8.92188C102.272 8.39844 102.129 7.99023 102.051 7.69727V13H101.184V6.58984H102.374L104.055 10.6621C104.223 11.0918 104.377 11.5586 104.518 12.0625Z" fill="#202123"/>
<g clip-path="url(#clip0_1_2097)">
<path d="M2.43792 21.5L170.438 21.5" stroke="#B9B9B9"/>
<circle cx="169.938" cy="21.5" r="2" fill="white" stroke="#B9B9B9"/>
<circle cx="2.93796" cy="21.5" r="2" fill="white" stroke="#B9B9B9"/>
</g>
<circle cx="83.938" cy="21.5" r="2" fill="white" stroke="#B9B9B9"/>
<path d="M158.821 12H157.991V5.59863H155.73V4.86133H161.082V5.59863H158.821V12ZM166.189 10.1006C166.189 10.7288 165.961 11.2188 165.505 11.5703C165.05 11.9219 164.431 12.0977 163.65 12.0977C162.804 12.0977 162.152 11.9886 161.697 11.7705V10.9697C161.99 11.0934 162.309 11.1911 162.654 11.2627C162.999 11.3343 163.341 11.3701 163.679 11.3701C164.233 11.3701 164.649 11.266 164.929 11.0576C165.209 10.846 165.349 10.5531 165.349 10.1787C165.349 9.93132 165.299 9.72949 165.198 9.57324C165.1 9.41374 164.934 9.26725 164.7 9.13379C164.469 9.00033 164.115 8.84896 163.64 8.67969C162.976 8.44206 162.501 8.16048 162.214 7.83496C161.931 7.50944 161.79 7.08464 161.79 6.56055C161.79 6.01042 161.996 5.57259 162.41 5.24707C162.823 4.92155 163.37 4.75879 164.05 4.75879C164.76 4.75879 165.413 4.889 166.008 5.14941L165.749 5.87207C165.16 5.62467 164.587 5.50098 164.031 5.50098C163.591 5.50098 163.248 5.59538 163 5.78418C162.753 5.97298 162.629 6.23503 162.629 6.57031C162.629 6.81771 162.675 7.02116 162.766 7.18066C162.857 7.33691 163.01 7.48177 163.225 7.61523C163.443 7.74544 163.775 7.8903 164.221 8.0498C164.97 8.31673 165.484 8.60319 165.764 8.90918C166.047 9.21517 166.189 9.6123 166.189 10.1006ZM171.628 12H167.649V4.86133H171.628V5.59863H168.479V7.89844H171.438V8.63086H168.479V11.2578H171.628V12Z" fill="#B9B9B9"/>
<path d="M5.98093 12L5.09225 9.72949H2.23093L1.35202 12H0.512177L3.33444 4.83203H4.03268L6.8403 12H5.98093ZM4.83347 8.98242L4.00339 6.77051C3.89597 6.49056 3.78529 6.14714 3.67136 5.74023C3.59974 6.05273 3.4972 6.39616 3.36374 6.77051L2.5239 8.98242H4.83347ZM7.82175 12V4.86133H8.65182V11.248H11.8012V12H7.82175ZM17.5044 12L16.6157 9.72949H13.7544L12.8755 12H12.0356L14.8579 4.83203H15.5561L18.3637 12H17.5044ZM16.3569 8.98242L15.5268 6.77051C15.4194 6.49056 15.3087 6.14714 15.1948 5.74023C15.1232 6.05273 15.0206 6.39616 14.8872 6.77051L14.0473 8.98242H16.3569Z" fill="#B9B9B9"/>
<defs>
<clipPath id="clip0_1_2097">
<rect width="172" height="5" fill="white" transform="translate(0.437958 19)"/>
</clipPath>
</defs>
</svg>
